<?xml version="1.0"?>
<svg width="900" height="260" viewBox="0 0 900 260" xmlns="http://www.w3.org/2000/svg">
<g transform="translate(0,15) scale(0.9)">
  <rect x="47" y="135" width="20" height="53" rx="4" fill="#466C90"></rect>
  <path d="M30,150 A99,99 0 0 1 212,78" fill="none" stroke="#149AAD" stroke-width="6" stroke-linecap="round"></path>
  <path d="M30,150 A99,99 0 0 0 200,194" fill="none" stroke="#0F2547" stroke-width="9" stroke-linecap="round"></path>
  <circle cx="30" cy="150" r="7" fill="#0F2547"></circle>
  <text x="126" y="188" text-anchor="middle" font-family="&#39;Atkinson Hyperlegible&#39;,sans-serif" font-weight="700" font-size="172" fill="#0F2547">R</text>
  <rect x="72" y="118" width="20" height="70" rx="4" fill="#365677"></rect>
  <rect x="97" y="100" width="20" height="88" rx="4" fill="#23B7CC"></rect>
  <path d="M56,176 C 116,166 152,148 172,120 C 187,101 196,93 203,87" fill="none" stroke="#F5A623" stroke-width="5.5" stroke-linecap="round"></path>
  <polygon points="212,78 207,95 195,83" fill="#F5A623"></polygon>
  </g>
  <text x="272" y="124" font-family="&#39;Atkinson Hyperlegible&#39;,sans-serif" font-weight="700" font-size="90" fill="#0F2547">Raborn</text>
  <text x="274" y="162" font-family="&#39;Atkinson Hyperlegible&#39;,sans-serif" font-weight="700" font-size="22" fill="#0F2547" letter-spacing="4.5">DECISION SCIENCES</text>
  <g>
    <text x="272" y="198" font-family="&#39;Atkinson Hyperlegible&#39;,sans-serif" font-weight="400" font-size="20" fill="#149AAD">data</text>
    <path d="M324,192 L340,192 M334,187 L340,192 L334,197" fill="none" stroke="#149AAD" stroke-width="2.5" stroke-linecap="round" stroke-linejoin="round"></path>
    <text x="354" y="198" font-family="&#39;Atkinson Hyperlegible&#39;,sans-serif" font-weight="400" font-size="20" fill="#149AAD">decisions</text>
    <path d="M451,192 L467,192 M461,187 L467,192 L461,197" fill="none" stroke="#149AAD" stroke-width="2.5" stroke-linecap="round" stroke-linejoin="round"></path>
    <text x="481" y="198" font-family="&#39;Atkinson Hyperlegible&#39;,sans-serif" font-weight="400" font-size="20" fill="#149AAD">advantage</text>
  </g>
  <g transform="translate(620,16)"><circle cx="4" cy="8" r="1.4" fill="#1C8FA3" opacity="0.16"></circle><circle cx="4" cy="26" r="1.4" fill="#1C8FA3" opacity="0.16"></circle><circle cx="4" cy="44" r="1.4" fill="#1C8FA3" opacity="0.16"></circle><circle cx="4" cy="62" r="1.4" fill="#1C8FA3" opacity="0.16"></circle><circle cx="4" cy="80" r="1.4" fill="#1C8FA3" opacity="0.16"></circle><circle cx="4" cy="98" r="1.4" fill="#1C8FA3" opacity="0.16"></circle><circle cx="4" cy="116" r="1.4" fill="#1C8FA3" opacity="0.16"></circle><circle cx="4" cy="134" r="1.4" fill="#1C8FA3" opacity="0.16"></circle><circle cx="4" cy="152" r="1.4" fill="#1C8FA3" opacity="0.16"></circle><circle cx="4" cy="170" r="1.4" fill="#1C8FA3" opacity="0.16"></circle><circle cx="4" cy="188" r="1.4" fill="#1C8FA3" opacity="0.16"></circle><circle cx="22" cy="8" r="1.4" fill="#1C8FA3" opacity="0.16"></circle><circle cx="22" cy="26" r="1.4" fill="#1C8FA3" opacity="0.16"></circle><circle cx="22" cy="44" r="1.4" fill="#1C8FA3" opacity="0.16"></circle><circle cx="22" cy="62" r="1.4" fill="#1C8FA3" opacity="0.16"></circle><circle cx="22" cy="80" r="1.4" fill="#1C8FA3" opacity="0.16"></circle><circle cx="22" cy="98" r="1.4" fill="#1C8FA3" opacity="0.16"></circle><circle cx="22" cy="116" r="1.4" fill="#1C8FA3" opacity="0.16"></circle><circle cx="22" cy="134" r="1.4" fill="#1C8FA3" opacity="0.16"></circle><circle cx="22" cy="152" r="1.4" fill="#1C8FA3" opacity="0.16"></circle><circle cx="22" cy="170" r="1.4" fill="#1C8FA3" opacity="0.16"></circle><circle cx="22" cy="188" r="1.4" fill="#1C8FA3" opacity="0.16"></circle><circle cx="40" cy="8" r="1.4" fill="#1C8FA3" opacity="0.16"></circle><circle cx="40" cy="26" r="1.4" fill="#1C8FA3" opacity="0.16"></circle><circle cx="40" cy="44" r="1.4" fill="#1C8FA3" opacity="0.16"></circle><circle cx="40" cy="62" r="1.4" fill="#1C8FA3" opacity="0.16"></circle><circle cx="40" cy="80" r="1.4" fill="#1C8FA3" opacity="0.16"></circle><circle cx="40" cy="98" r="1.4" fill="#1C8FA3" opacity="0.16"></circle><circle cx="40" cy="116" r="1.4" fill="#1C8FA3" opacity="0.16"></circle><circle cx="40" cy="134" r="1.4" fill="#1C8FA3" opacity="0.16"></circle><circle cx="40" cy="152" r="1.4" fill="#1C8FA3" opacity="0.16"></circle><circle cx="40" cy="170" r="1.4" fill="#1C8FA3" opacity="0.16"></circle><circle cx="40" cy="188" r="1.4" fill="#1C8FA3" opacity="0.16"></circle><circle cx="58" cy="8" r="1.4" fill="#1C8FA3" opacity="0.16"></circle><circle cx="58" cy="26" r="1.4" fill="#1C8FA3" opacity="0.16"></circle><circle cx="58" cy="44" r="1.4" fill="#1C8FA3" opacity="0.16"></circle><circle cx="58" cy="62" r="1.4" fill="#1C8FA3" opacity="0.16"></circle><circle cx="58" cy="80" r="1.4" fill="#1C8FA3" opacity="0.16"></circle><circle cx="58" cy="98" r="1.4" fill="#1C8FA3" opacity="0.16"></circle><circle cx="58" cy="116" r="1.4" fill="#1C8FA3" opacity="0.16"></circle><circle cx="58" cy="134" r="1.4" fill="#1C8FA3" opacity="0.16"></circle><circle cx="58" cy="152" r="1.4" fill="#1C8FA3" opacity="0.16"></circle><circle cx="58" cy="170" r="1.4" fill="#1C8FA3" opacity="0.16"></circle><circle cx="58" cy="188" r="1.4" fill="#1C8FA3" opacity="0.16"></circle><circle cx="76" cy="8" r="1.4" fill="#1C8FA3" opacity="0.16"></circle><circle cx="76" cy="26" r="1.4" fill="#1C8FA3" opacity="0.16"></circle><circle cx="76" cy="44" r="1.4" fill="#1C8FA3" opacity="0.16"></circle><circle cx="76" cy="62" r="1.4" fill="#1C8FA3" opacity="0.16"></circle><circle cx="76" cy="80" r="1.4" fill="#1C8FA3" opacity="0.16"></circle><circle cx="76" cy="98" r="1.4" fill="#1C8FA3" opacity="0.16"></circle><circle cx="76" cy="116" r="1.4" fill="#1C8FA3" opacity="0.16"></circle><circle cx="76" cy="134" r="1.4" fill="#1C8FA3" opacity="0.16"></circle><circle cx="76" cy="152" r="1.4" fill="#1C8FA3" opacity="0.16"></circle><circle cx="76" cy="170" r="1.4" fill="#1C8FA3" opacity="0.16"></circle><circle cx="76" cy="188" r="1.4" fill="#1C8FA3" opacity="0.16"></circle><circle cx="94" cy="8" r="1.4" fill="#1C8FA3" opacity="0.16"></circle><circle cx="94" cy="26" r="1.4" fill="#1C8FA3" opacity="0.16"></circle><circle cx="94" cy="44" r="1.4" fill="#1C8FA3" opacity="0.16"></circle><circle cx="94" cy="62" r="1.4" fill="#1C8FA3" opacity="0.16"></circle><circle cx="94" cy="80" r="1.4" fill="#1C8FA3" opacity="0.16"></circle><circle cx="94" cy="98" r="1.4" fill="#1C8FA3" opacity="0.16"></circle><circle cx="94" cy="116" r="1.4" fill="#1C8FA3" opacity="0.16"></circle><circle cx="94" cy="134" r="1.4" fill="#1C8FA3" opacity="0.16"></circle><circle cx="94" cy="152" r="1.4" fill="#1C8FA3" opacity="0.16"></circle><circle cx="94" cy="170" r="1.4" fill="#1C8FA3" opacity="0.16"></circle><circle cx="94" cy="188" r="1.4" fill="#1C8FA3" opacity="0.16"></circle><circle cx="112" cy="8" r="1.4" fill="#1C8FA3" opacity="0.16"></circle><circle cx="112" cy="26" r="1.4" fill="#1C8FA3" opacity="0.16"></circle><circle cx="112" cy="44" r="1.4" fill="#1C8FA3" opacity="0.16"></circle><circle cx="112" cy="62" r="1.4" fill="#1C8FA3" opacity="0.16"></circle><circle cx="112" cy="80" r="1.4" fill="#1C8FA3" opacity="0.16"></circle><circle cx="112" cy="98" r="1.4" fill="#1C8FA3" opacity="0.16"></circle><circle cx="112" cy="116" r="1.4" fill="#1C8FA3" opacity="0.16"></circle><circle cx="112" cy="134" r="1.4" fill="#1C8FA3" opacity="0.16"></circle><circle cx="112" cy="152" r="1.4" fill="#1C8FA3" opacity="0.16"></circle><circle cx="112" cy="170" r="1.4" fill="#1C8FA3" opacity="0.16"></circle><circle cx="112" cy="188" r="1.4" fill="#1C8FA3" opacity="0.16"></circle><circle cx="130" cy="8" r="1.4" fill="#1C8FA3" opacity="0.16"></circle><circle cx="130" cy="26" r="1.4" fill="#1C8FA3" opacity="0.16"></circle><circle cx="130" cy="44" r="1.4" fill="#1C8FA3" opacity="0.16"></circle><circle cx="130" cy="62" r="1.4" fill="#1C8FA3" opacity="0.16"></circle><circle cx="130" cy="80" r="1.4" fill="#1C8FA3" opacity="0.16"></circle><circle cx="130" cy="98" r="1.4" fill="#1C8FA3" opacity="0.16"></circle><circle cx="130" cy="116" r="1.4" fill="#1C8FA3" opacity="0.16"></circle><circle cx="130" cy="134" r="1.4" fill="#1C8FA3" opacity="0.16"></circle><circle cx="130" cy="152" r="1.4" fill="#1C8FA3" opacity="0.16"></circle><circle cx="130" cy="170" r="1.4" fill="#1C8FA3" opacity="0.16"></circle><circle cx="130" cy="188" r="1.4" fill="#1C8FA3" opacity="0.16"></circle><circle cx="148" cy="8" r="1.4" fill="#1C8FA3" opacity="0.16"></circle><circle cx="148" cy="26" r="1.4" fill="#1C8FA3" opacity="0.16"></circle><circle cx="148" cy="44" r="1.4" fill="#1C8FA3" opacity="0.16"></circle><circle cx="148" cy="62" r="1.4" fill="#1C8FA3" opacity="0.16"></circle><circle cx="148" cy="80" r="1.4" fill="#1C8FA3" opacity="0.16"></circle><circle cx="148" cy="98" r="1.4" fill="#1C8FA3" opacity="0.16"></circle><circle cx="148" cy="116" r="1.4" fill="#1C8FA3" opacity="0.16"></circle><circle cx="148" cy="134" r="1.4" fill="#1C8FA3" opacity="0.16"></circle><circle cx="148" cy="152" r="1.4" fill="#1C8FA3" opacity="0.16"></circle><circle cx="148" cy="170" r="1.4" fill="#1C8FA3" opacity="0.16"></circle><circle cx="148" cy="188" r="1.4" fill="#1C8FA3" opacity="0.16"></circle><circle cx="166" cy="8" r="1.4" fill="#1C8FA3" opacity="0.16"></circle><circle cx="166" cy="26" r="1.4" fill="#1C8FA3" opacity="0.16"></circle><circle cx="166" cy="44" r="1.4" fill="#1C8FA3" opacity="0.16"></circle><circle cx="166" cy="62" r="1.4" fill="#1C8FA3" opacity="0.16"></circle><circle cx="166" cy="80" r="1.4" fill="#1C8FA3" opacity="0.16"></circle><circle cx="166" cy="98" r="1.4" fill="#1C8FA3" opacity="0.16"></circle><circle cx="166" cy="116" r="1.4" fill="#1C8FA3" opacity="0.16"></circle><circle cx="166" cy="134" r="1.4" fill="#1C8FA3" opacity="0.16"></circle><circle cx="166" cy="152" r="1.4" fill="#1C8FA3" opacity="0.16"></circle><circle cx="166" cy="170" r="1.4" fill="#1C8FA3" opacity="0.16"></circle><circle cx="166" cy="188" r="1.4" fill="#1C8FA3" opacity="0.16"></circle><circle cx="184" cy="8" r="1.4" fill="#1C8FA3" opacity="0.16"></circle><circle cx="184" cy="26" r="1.4" fill="#1C8FA3" opacity="0.16"></circle><circle cx="184" cy="44" r="1.4" fill="#1C8FA3" opacity="0.16"></circle><circle cx="184" cy="62" r="1.4" fill="#1C8FA3" opacity="0.16"></circle><circle cx="184" cy="80" r="1.4" fill="#1C8FA3" opacity="0.16"></circle><circle cx="184" cy="98" r="1.4" fill="#1C8FA3" opacity="0.16"></circle><circle cx="184" cy="116" r="1.4" fill="#1C8FA3" opacity="0.16"></circle><circle cx="184" cy="134" r="1.4" fill="#1C8FA3" opacity="0.16"></circle><circle cx="184" cy="152" r="1.4" fill="#1C8FA3" opacity="0.16"></circle><circle cx="184" cy="170" r="1.4" fill="#1C8FA3" opacity="0.16"></circle><circle cx="184" cy="188" r="1.4" fill="#1C8FA3" opacity="0.16"></circle><circle cx="202" cy="8" r="1.4" fill="#1C8FA3" opacity="0.16"></circle><circle cx="202" cy="26" r="1.4" fill="#1C8FA3" opacity="0.16"></circle><circle cx="202" cy="44" r="1.4" fill="#1C8FA3" opacity="0.16"></circle><circle cx="202" cy="62" r="1.4" fill="#1C8FA3" opacity="0.16"></circle><circle cx="202" cy="80" r="1.4" fill="#1C8FA3" opacity="0.16"></circle><circle cx="202" cy="98" r="1.4" fill="#1C8FA3" opacity="0.16"></circle><circle cx="202" cy="116" r="1.4" fill="#1C8FA3" opacity="0.16"></circle><circle cx="202" cy="134" r="1.4" fill="#1C8FA3" opacity="0.16"></circle><circle cx="202" cy="152" r="1.4" fill="#1C8FA3" opacity="0.16"></circle><circle cx="202" cy="170" r="1.4" fill="#1C8FA3" opacity="0.16"></circle><circle cx="202" cy="188" r="1.4" fill="#1C8FA3" opacity="0.16"></circle><rect x="0" y="180" width="16" height="20" rx="3" fill="#1C8FA3" opacity="0.32"></rect><rect x="24" y="172" width="16" height="28" rx="3" fill="#1C8FA3" opacity="0.4"></rect><rect x="48" y="162" width="16" height="38" rx="3" fill="#1C8FA3" opacity="0.36"></rect><rect x="72" y="150" width="16" height="50" rx="3" fill="#1C8FA3" opacity="0.5"></rect><rect x="96" y="135" width="16" height="65" rx="3" fill="#1C8FA3" opacity="0.46"></rect><rect x="120" y="117" width="16" height="83" rx="3" fill="#1C8FA3" opacity="0.62"></rect><rect x="144" y="96" width="16" height="104" rx="3" fill="#1C8FA3" opacity="0.72"></rect><rect x="168" y="72" width="16" height="128" rx="3" fill="#1C8FA3" opacity="0.66"></rect><rect x="192" y="44" width="16" height="156" rx="3" fill="#1C8FA3" opacity="0.95"></rect><path d="M8,172 C 12.0,170.7 24.0,167.0 32,164 C 40.0,161.0 48.0,157.7 56,154 C 64.0,150.3 72.0,146.5 80,142 C 88.0,137.5 96.0,132.5 104,127 C 112.0,121.5 120.0,115.5 128,109 C 136.0,102.5 144.0,95.5 152,88 C 160.0,80.5 168.0,72.7 176,64 C 184.0,55.3 196.0,40.7 200,36" fill="none" stroke="#0F2547" stroke-width="3" stroke-linecap="round" stroke-linejoin="round"></path><circle cx="8" cy="172" r="4" fill="#ffffff" stroke="#149AAD" stroke-width="2"></circle><circle cx="56" cy="154" r="4" fill="#ffffff" stroke="#149AAD" stroke-width="2"></circle><circle cx="104" cy="127" r="4" fill="#ffffff" stroke="#149AAD" stroke-width="2"></circle><circle cx="152" cy="88" r="4" fill="#F5A623" stroke="#F5A623" stroke-width="2"></circle><circle cx="200" cy="36" r="4" fill="#F5A623" stroke="#F5A623" stroke-width="2"></circle></g>
</svg>